<svg width="16" height="16" viewBox="0 0 16 16" fill="none" xmlns="http://www.w3.org/2000/svg">
<g clip-path="url(#clip0_1284_155)">
<path d="M16 8C16 12.4183 12.4183 16 8 16C3.58175 16 0 12.4183 0 8C0 8.00187 8 0.00090625 8 0C12.4183 0 16 3.58175 16 8Z" fill="#0052B4"/>
<path d="M7.97861 8.00004H8.00001C8.00001 7.99279 8.00001 7.98586 8.00001 7.97864C7.99289 7.98579 7.98576 7.99292 7.97861 8.00004Z" fill="#F0F0F0"/>
<path d="M8 4.17391C8 2.76625 8 1.84384 8 0H7.99866C3.581 0.00071875 0 3.58212 0 7.99997H4.17391V5.64959L6.52428 7.99997H7.97862C7.98578 7.99284 7.99291 7.98572 8.00003 7.97856C8.00003 7.43959 8.00003 6.95869 8.00003 6.52431L5.64962 4.17391H8Z" fill="#F0F0F0"/>
<path d="M4.04733 1.04395C2.79611 1.75641 1.75593 2.7966 1.04346 4.04782V8.00048H3.13043V3.13095V3.13091H7.99999C7.99999 2.4727 7.99999 1.84563 7.99999 1.04395H4.04733Z" fill="#D80027"/>
<path d="M7.99989 7.01707L5.15761 4.17482H4.17383C4.17383 4.17479 4.17383 4.17482 4.17383 4.17482L7.99986 8.00085H7.99989C7.99989 8.00085 7.99989 7.32257 7.99989 7.01707Z" fill="#D80027"/>
<path d="M4.82486 9.3916L5.26392 10.3097L6.25539 10.0805L5.81139 10.9962L6.6087 11.6285L5.61598 11.8522L5.61877 12.8699L4.82486 12.2332L4.03098 12.8699L4.03377 11.8522L3.04102 11.6285L3.83836 10.9962L3.3943 10.0805L4.38583 10.3097L4.82486 9.3916Z" fill="#F0F0F0"/>
<path d="M11.9776 11.1307L12.1972 11.5898L12.6929 11.4752L12.4709 11.933L12.8696 12.2492L12.3732 12.361L12.3746 12.8699L11.9776 12.5515L11.5807 12.8699L11.5821 12.361L11.0857 12.2492L11.4844 11.933L11.2624 11.4752L11.7581 11.5898L11.9776 11.1307Z" fill="#F0F0F0"/>
<path d="M9.9354 6.26074L10.1549 6.7198L10.6506 6.60518L10.4286 7.06302L10.8273 7.37918L10.331 7.49105L10.3323 7.99987L9.9354 7.68152L9.53846 7.99987L9.5398 7.49105L9.04346 7.37918L9.44211 7.06302L9.22011 6.60518L9.71586 6.7198L9.9354 6.26074Z" fill="#F0F0F0"/>
<path d="M11.9776 3.47852L12.1972 3.93758L12.6929 3.82298L12.4709 4.28083L12.8695 4.59695L12.3732 4.70886L12.3746 5.21767L11.9776 4.89933L11.5807 5.21767L11.5821 4.70886L11.0857 4.59695L11.4843 4.28083L11.2624 3.82298L11.7581 3.93758L11.9776 3.47852Z" fill="#F0F0F0"/>
<path d="M13.7615 5.56543L13.981 6.02449L14.4768 5.90987L14.2548 6.36771L14.6534 6.68387L14.157 6.79577L14.1584 7.30455L13.7615 6.98624L13.3646 7.30455L13.3659 6.79577L12.8696 6.68387L13.2682 6.36771L13.0462 5.90987L13.5419 6.02449L13.7615 5.56543Z" fill="#F0F0F0"/>
<path d="M12.4859 8L12.6585 8.53144H13.2173L12.7652 8.85991L12.938 9.39131L12.4859 9.06287L12.0338 9.39131L12.2065 8.85991L11.7544 8.53144H12.3132L12.4859 8Z" fill="#F0F0F0"/>
</g>
<defs>
<clipPath id="clip0_1284_155">
<rect width="16" height="16" fill="white"/>
</clipPath>
</defs>
</svg>
